name Walk_125 02
datacolumns 19
datarows 55
range 1.740000 1.767000
endheader
time	ground_force_vx	ground_force_vy	ground_force_vz	ground_force_px	ground_force_py	ground_force_pz	ground_force_vx	ground_force_vy	ground_force_vz	ground_force_px	ground_force_py	ground_force_pz	ground_torque_x	ground_torque_y	ground_torque_z	ground_torque_x	ground_torque_y	ground_torque_z
1.740000	9.986657	636.877778	-39.696394	1.135964	0.000000	-0.375777	-0.000000	-0.000000	0.000000	-0.000000	-0.000000	0.000000	0.000000	1.953515	0.000000	0.000000	0.000000	0.000000	
1.740500	10.056080	636.898954	-39.727684	1.135600	0.000000	-0.375779	-0.000000	-0.000000	0.000000	-0.000000	-0.000000	0.000000	0.000000	1.954195	0.000000	0.000000	0.000000	0.000000	
1.741000	10.123901	636.926102	-39.760824	1.135236	0.000000	-0.375780	-0.000000	-0.000000	0.000000	-0.000000	-0.000000	0.000000	0.000000	1.954919	0.000000	0.000000	0.000000	0.000000	
1.741500	10.190117	636.959305	-39.795768	1.134873	0.000000	-0.375781	-0.000000	-0.000000	0.000000	-0.000000	-0.000000	0.000000	0.000000	1.955705	0.000000	0.000000	0.000000	0.000000	
1.742000	10.254732	636.998640	-39.832469	1.134510	0.000000	-0.375781	-0.000000	-0.000000	0.000000	-0.000000	-0.000000	0.000000	0.000000	1.956567	0.000000	0.000000	0.000000	0.000000	
1.742500	10.317750	637.044182	-39.870881	1.134148	0.000000	-0.375780	-0.000000	-0.000000	0.000000	-0.000000	-0.000000	0.000000	0.000000	1.957521	0.000000	0.000000	0.000000	0.000000	
1.743000	10.379185	637.095996	-39.910958	1.133786	0.000000	-0.375779	0.000000	-0.000000	0.000000	-0.000000	-0.000000	0.000000	0.000000	1.958583	0.000000	0.000000	0.000000	0.000000	
1.743500	10.439050	637.154144	-39.952653	1.133424	0.000000	-0.375777	0.000000	-0.000000	0.000000	-0.000000	-0.000000	0.000000	0.000000	1.959770	0.000000	0.000000	0.000000	0.000000	
1.744000	10.497368	637.218684	-39.995917	1.133063	0.000000	-0.375775	0.000000	-0.000000	0.000000	-0.000000	-0.000000	0.000000	0.000000	1.961095	0.000000	0.000000	0.000000	0.000000	
1.744500	10.554164	637.289665	-40.040700	1.132703	0.000000	-0.375772	0.000000	-0.000000	0.000000	-0.000000	-0.000000	0.000000	0.000000	1.962576	0.000000	0.000000	0.000000	0.000000	
1.745000	10.609467	637.367133	-40.086953	1.132343	0.000000	-0.375768	0.000000	-0.000000	0.000000	-0.000000	-0.000000	0.000000	0.000000	1.964228	0.000000	0.000000	0.000000	0.000000	
1.745500	10.663314	637.451128	-40.134621	1.131984	0.000000	-0.375764	0.000000	-0.000000	0.000000	-0.000000	-0.000000	0.000000	0.000000	1.966066	0.000000	0.000000	0.000000	0.000000	
1.746000	10.715743	637.541683	-40.183648	1.131624	0.000000	-0.375759	0.000000	-0.000000	0.000000	-0.000000	-0.000000	0.000000	0.000000	1.968104	0.000000	0.000000	0.000000	0.000000	
1.746500	10.766799	637.638828	-40.233977	1.131266	0.000000	-0.375754	0.000000	-0.000000	0.000000	-0.000000	-0.000000	0.000000	0.000000	1.970359	0.000000	0.000000	0.000000	0.000000	
1.747000	10.816533	637.742586	-40.285547	1.130908	0.000000	-0.375748	0.000000	-0.000000	0.000000	-0.000000	-0.000000	0.000000	0.000000	1.972845	0.000000	0.000000	0.000000	0.000000	
1.747500	10.864997	637.852976	-40.338293	1.130550	0.000000	-0.375742	0.000000	-0.000000	0.000000	-0.000000	-0.000000	0.000000	0.000000	1.975575	0.000000	0.000000	0.000000	0.000000	
1.748000	10.912250	637.970009	-40.392149	1.130192	0.000000	-0.375735	0.000000	-0.000000	0.000000	-0.000000	-0.000000	0.000000	0.000000	1.978565	0.000000	0.000000	0.000000	0.000000	
1.748500	10.958356	638.093695	-40.447043	1.129835	0.000000	-0.375728	0.000000	-0.000000	0.000000	-0.000000	-0.000000	0.000000	0.000000	1.981828	0.000000	0.000000	0.000000	0.000000	
1.749000	11.003383	638.224037	-40.502903	1.129478	0.000000	-0.375720	0.000000	-0.000000	0.000000	-0.000000	-0.000000	0.000000	0.000000	1.985378	0.000000	0.000000	0.000000	0.000000	
1.749500	11.047401	638.361032	-40.559650	1.129122	0.000000	-0.375711	0.000000	-0.000000	0.000000	-0.000000	-0.000000	0.000000	0.000000	1.989226	0.000000	0.000000	0.000000	0.000000	
1.750000	11.090487	638.504675	-40.617203	1.128766	0.000000	-0.375703	0.000000	0.000000	0.000000	-0.000000	-0.000000	0.000000	0.000000	1.993386	0.000000	0.000000	0.000000	0.000000	
1.750500	11.132721	638.654954	-40.675477	1.128410	0.000000	-0.375694	0.000000	0.000000	-0.000000	0.000000	0.000000	-0.000000	0.000000	1.997871	0.000000	0.000000	0.000000	0.000000	
1.751000	11.174185	638.811855	-40.734383	1.128054	0.000000	-0.375684	0.000000	0.000000	-0.000000	0.000000	0.000000	-0.000000	0.000000	2.002691	0.000000	0.000000	0.000000	0.000000	
1.751500	11.214968	638.975358	-40.793830	1.127698	0.000000	-0.375674	0.000000	0.000000	-0.000000	0.000000	0.000000	-0.000000	0.000000	2.007858	0.000000	0.000000	0.000000	0.000000	
1.752000	11.255159	639.145441	-40.853720	1.127343	0.000000	-0.375664	0.000000	0.000000	-0.000000	0.000000	0.000000	-0.000000	0.000000	2.013382	0.000000	0.000000	0.000000	0.000000	
1.752500	11.294850	639.322075	-40.913956	1.126987	0.000000	-0.375653	0.000000	0.000000	-0.000000	0.000000	0.000000	-0.000000	0.000000	2.019273	0.000000	0.000000	0.000000	0.000000	
1.753000	11.334139	639.505231	-40.974435	1.126632	0.000000	-0.375642	0.000000	0.000000	-0.000000	0.000000	0.000000	-0.000000	0.000000	2.025541	0.000000	0.000000	0.000000	0.000000	
1.753500	11.373122	639.694874	-41.035051	1.126277	0.000000	-0.375631	-0.000000	0.000000	-0.000000	0.000000	0.000000	-0.000000	0.000000	2.032195	0.000000	0.000000	0.000000	0.000000	
1.754000	11.411900	639.890968	-41.095696	1.125922	0.000000	-0.375619	-0.000000	0.000000	-0.000000	0.000000	0.000000	-0.000000	0.000000	2.039244	0.000000	0.000000	0.000000	0.000000	
1.754500	11.450574	640.093472	-41.156259	1.125566	0.000000	-0.375607	-0.000000	0.000000	-0.000000	0.000000	0.000000	-0.000000	0.000000	2.046694	0.000000	0.000000	0.000000	0.000000	
1.755000	11.489247	640.302344	-41.216628	1.125211	0.000000	-0.375595	-0.000000	0.000000	-0.000000	0.000000	0.000000	-0.000000	0.000000	2.054553	0.000000	0.000000	0.000000	0.000000	
1.755500	11.528022	640.517537	-41.276687	1.124855	0.000000	-0.375583	-0.000000	0.000000	-0.000000	0.000000	0.000000	-0.000000	0.000000	2.062827	0.000000	0.000000	0.000000	0.000000	
1.756000	11.567005	640.739003	-41.336320	1.124500	0.000000	-0.375571	-0.000000	0.000000	-0.000000	0.000000	0.000000	-0.000000	0.000000	2.071522	0.000000	0.000000	0.000000	0.000000	
1.756500	11.606298	640.966693	-41.395408	1.124144	0.000000	-0.375558	-0.000000	0.000000	-0.000000	0.000000	0.000000	-0.000000	0.000000	2.080643	0.000000	0.000000	0.000000	0.000000	
1.757000	11.646006	641.200553	-41.453834	1.123788	0.000000	-0.375546	-0.000000	0.000000	-0.000000	0.000000	0.000000	-0.000000	0.000000	2.090194	0.000000	0.000000	0.000000	0.000000	
1.757500	11.686233	641.440529	-41.511478	1.123431	0.000000	-0.375533	-0.000000	0.000000	-0.000000	0.000000	0.000000	-0.000000	0.000000	2.100180	0.000000	0.000000	0.000000	0.000000	
1.758000	11.727079	641.686565	-41.568221	1.123075	0.000000	-0.375520	-0.000000	0.000000	-0.000000	0.000000	0.000000	-0.000000	0.000000	2.110602	0.000000	0.000000	0.000000	0.000000	
1.758500	11.768645	641.938604	-41.623944	1.122718	0.000000	-0.375507	-0.000000	0.000000	0.000000	0.000000	0.000000	-0.000000	0.000000	2.121463	0.000000	0.000000	0.000000	0.000000	
1.759000	11.811030	642.196584	-41.678529	1.122360	0.000000	-0.375494	-0.000000	0.000000	0.000000	0.000000	0.000000	-0.000000	0.000000	2.132765	0.000000	0.000000	0.000000	0.000000	
1.759500	11.854329	642.460446	-41.731859	1.122002	0.000000	-0.375481	-0.000000	0.000000	0.000000	0.000000	0.000000	-0.000000	0.000000	2.144508	0.000000	0.000000	0.000000	0.000000	
1.760000	11.898635	642.730126	-41.783818	1.121644	0.000000	-0.375468	-0.000000	0.000000	0.000000	0.000000	0.000000	-0.000000	0.000000	2.156692	0.000000	0.000000	0.000000	0.000000	
1.760500	11.944038	643.005562	-41.834294	1.121285	0.000000	-0.375454	-0.000000	0.000000	0.000000	0.000000	0.000000	-0.000000	0.000000	2.169317	0.000000	0.000000	0.000000	0.000000	
1.761000	11.990624	643.286688	-41.883175	1.120926	0.000000	-0.375441	-0.000000	0.000000	0.000000	0.000000	0.000000	-0.000000	0.000000	2.182380	0.000000	0.000000	0.000000	0.000000	
1.761500	12.038474	643.573438	-41.930354	1.120566	0.000000	-0.375428	-0.000000	0.000000	0.000000	0.000000	0.000000	-0.000000	0.000000	2.195881	0.000000	0.000000	0.000000	0.000000	
1.762000	12.087666	643.865745	-41.975725	1.120206	0.000000	-0.375415	-0.000000	0.000000	0.000000	0.000000	0.000000	-0.000000	0.000000	2.209815	0.000000	0.000000	0.000000	0.000000	
1.762500	12.138274	644.163540	-42.019188	1.119845	0.000000	-0.375402	0.000000	0.000000	0.000000	0.000000	0.000000	-0.000000	0.000000	2.224178	0.000000	0.000000	0.000000	0.000000	
1.763000	12.190365	644.466753	-42.060645	1.119484	0.000000	-0.375389	0.000000	0.000000	0.000000	0.000000	0.000000	-0.000000	0.000000	2.238968	0.000000	0.000000	0.000000	0.000000	
1.763500	12.244001	644.775313	-42.100003	1.119122	0.000000	-0.375376	0.000000	0.000000	0.000000	0.000000	0.000000	-0.000000	0.000000	2.254177	0.000000	0.000000	0.000000	0.000000	
1.764000	12.299240	645.089147	-42.137174	1.118760	0.000000	-0.375363	0.000000	0.000000	0.000000	0.000000	0.000000	-0.000000	0.000000	2.269801	0.000000	0.000000	0.000000	0.000000	
1.764500	12.356132	645.408182	-42.172074	1.118396	0.000000	-0.375350	0.000000	0.000000	0.000000	0.000000	0.000000	-0.000000	0.000000	2.285832	0.000000	0.000000	0.000000	0.000000	
1.765000	12.414725	645.732342	-42.204625	1.118033	0.000000	-0.375337	0.000000	0.000000	0.000000	0.000000	0.000000	-0.000000	0.000000	2.302264	0.000000	0.000000	0.000000	0.000000	
1.765500	12.475056	646.061550	-42.234754	1.117668	0.000000	-0.375324	0.000000	0.000000	0.000000	0.000000	0.000000	-0.000000	0.000000	2.319088	0.000000	0.000000	0.000000	0.000000	
1.766000	12.537160	646.395728	-42.262393	1.117303	0.000000	-0.375311	0.000000	0.000000	0.000000	0.000000	0.000000	-0.000000	0.000000	2.336296	0.000000	0.000000	0.000000	0.000000	
1.766500	12.601063	646.734794	-42.287482	1.116938	0.000000	-0.375299	0.000000	0.000000	-0.000000	0.000000	0.000000	-0.000000	0.000000	2.353877	0.000000	0.000000	0.000000	0.000000	
1.767000	12.666787	647.078665	-42.309963	1.116572	0.000000	-0.375286	0.000000	0.000000	-0.000000	0.000000	0.000000	-0.000000	0.000000	2.371823	0.000000	0.000000	0.000000	0.000000	
